# xmcd
#
# Track frame offsets: 
#        150
#        20930
#        43497
#        65505
#        84305
#        104900
#        119255
#        134037
#        149395
#        171787
#
# Disc length: 2577 seconds
#
# Revision: 1
# Processed by: cddbd v1.5.2PL0 Copyright (c) Steve Scherf et al.
# Submitted via: ExactAudioCopy v1.0b3
#
DISCID=9f0a0f0a
DTITLE=Mary Chapin Carpenter - Hometown Girl
DYEAR=1987
DGENRE=Country
TTITLE0=A Lot Like Me
TTITLE1=Other Streets and Other Towns
TTITLE2=Hometown Girl
TTITLE3=Downtown Train
TTITLE4=Family Hands
TTITLE5=A Road is Just a Road
TTITLE6=Come On Home
TTITLE7=Waltz
TTITLE8=Just Because
TTITLE9=Heroes and Heroines
EXTD=
EXTT0=
EXTT1=
EXTT2=
EXTT3=
EXTT4=
EXTT5=
EXTT6=
EXTT7=
EXTT8=
EXTT9=
PLAYORDER=
